<svg width="105" height="31" viewBox="0 0 105 31" fill="none" xmlns="http://www.w3.org/2000/svg">
<path d="M100.964 0.0471191H4.66728C2.53996 0.0471191 0.81543 1.72605 0.81543 3.79712V26.2971C0.81543 28.3682 2.53996 30.0471 4.66728 30.0471H100.964C103.091 30.0471 104.815 28.3682 104.815 26.2971V3.79712C104.815 1.72605 103.091 0.0471191 100.964 0.0471191Z" fill="black"/>
<path d="M100.964 0.647119C101.822 0.647119 102.645 0.978993 103.251 1.56973C103.858 2.16047 104.199 2.96169 104.199 3.79712V26.2971C104.199 27.1326 103.858 27.9338 103.251 28.5245C102.645 29.1152 101.822 29.4471 100.964 29.4471H4.66728C3.80916 29.4471 2.98618 29.1152 2.3794 28.5245C1.77261 27.9338 1.43173 27.1326 1.43173 26.2971V3.79712C1.43173 2.96169 1.77261 2.16047 2.3794 1.56973C2.98618 0.978993 3.80916 0.647119 4.66728 0.647119H100.964ZM100.964 0.0471191H4.66728C3.64571 0.0471191 2.66597 0.442207 1.94361 1.14547C1.22125 1.84873 0.81543 2.80256 0.81543 3.79712V26.2971C0.81543 27.2917 1.22125 28.2455 1.94361 28.9488C2.66597 29.652 3.64571 30.0471 4.66728 30.0471H100.964C101.985 30.0471 102.965 29.652 103.687 28.9488C104.41 28.2455 104.815 27.2917 104.815 26.2971V3.79712C104.815 2.80256 104.41 1.84873 103.687 1.14547C102.965 0.442207 101.985 0.0471191 100.964 0.0471191Z" fill="#A6A6A6"/>
<path d="M25.5541 14.5318C25.5328 12.2286 27.4912 11.1081 27.5807 11.056C26.4716 9.4817 24.7525 9.26661 24.1485 9.24946C22.7047 9.10153 21.3042 10.0905 20.5687 10.0905C19.8185 10.0905 18.6859 9.26375 17.4653 9.28804C15.8945 9.31163 14.425 10.197 13.619 11.5719C11.9558 14.3753 13.1962 18.495 14.7898 20.761C15.5869 21.8708 16.5184 23.1099 17.7376 23.0663C18.9304 23.0185 19.3759 22.326 20.8153 22.326C22.2415 22.326 22.6599 23.0663 23.9033 23.0385C25.1834 23.0185 25.9894 21.9237 26.7586 20.8039C27.6798 19.5319 28.0497 18.2792 28.0644 18.2149C28.0343 18.2049 25.5783 17.2923 25.5541 14.5318Z" fill="white"/>
<path d="M23.2053 7.75881C23.8468 6.97775 24.2858 5.91513 24.1639 4.83679C23.2354 4.87681 22.0742 5.46207 21.4055 6.22598C20.8139 6.89914 20.2854 8.00249 20.4219 9.0401C21.465 9.11584 22.5359 8.52772 23.2053 7.75881Z" fill="white"/>
<path d="M42.8156 22.9069H41.1487L40.2356 20.1135H37.0617L36.1919 22.9069H34.569L37.7135 13.397H39.6557L42.8156 22.9069ZM39.9603 18.9416L39.1345 16.4583C39.0472 16.2047 38.8835 15.6072 38.642 14.6668H38.6126C38.5165 15.0713 38.3616 15.6687 38.1488 16.4583L37.3377 18.9416H39.9603Z" fill="white"/>
<path d="M50.9021 19.3939C50.9021 20.5602 50.5784 21.482 49.931 22.1587C49.3511 22.7612 48.6311 23.062 47.7715 23.062C46.8437 23.062 46.1773 22.7376 45.7713 22.0887H45.742V25.701H44.1771V18.307C44.1771 17.5738 44.1572 16.8214 44.1191 16.0496H45.4954L45.5827 17.1365H45.6121C46.1339 16.3176 46.9259 15.9088 47.9888 15.9088C48.8197 15.9088 49.5133 16.2282 50.0683 16.8678C50.6246 17.5081 50.9021 18.3499 50.9021 19.3939ZM49.3078 19.4497C49.3078 18.7822 49.1537 18.232 48.8439 17.7989C48.5055 17.3473 48.0512 17.1215 47.4816 17.1215C47.0955 17.1215 46.7446 17.2473 46.4312 17.4952C46.1171 17.7453 45.9115 18.0719 45.8154 18.4764C45.7669 18.665 45.7427 18.8194 45.7427 18.9409V20.0842C45.7427 20.583 45.8998 21.0039 46.214 21.3477C46.5281 21.6914 46.9362 21.8629 47.4383 21.8629C48.0277 21.8629 48.4865 21.6414 48.8146 21.1997C49.1434 20.7574 49.3078 20.1743 49.3078 19.4497Z" fill="white"/>
<path d="M59.0037 19.3939C59.0037 20.5602 58.68 21.482 58.0319 22.1587C57.4528 22.7612 56.7327 23.062 55.8732 23.062C54.9454 23.062 54.2789 22.7376 53.8737 22.0887H53.8443V25.701H52.2794V18.307C52.2794 17.5738 52.2596 16.8214 52.2214 16.0496H53.5977L53.6851 17.1365H53.7144C54.2356 16.3176 55.0276 15.9088 56.0912 15.9088C56.9213 15.9088 57.615 16.2282 58.1714 16.8678C58.7255 17.5081 59.0037 18.3499 59.0037 19.3939ZM57.4094 19.4497C57.4094 18.7822 57.2546 18.232 56.9448 17.7989C56.6064 17.3473 56.1535 17.1215 55.5832 17.1215C55.1964 17.1215 54.8463 17.2473 54.5321 17.4952C54.218 17.7453 54.0132 18.0719 53.917 18.4764C53.8693 18.665 53.8443 18.8194 53.8443 18.9409V20.0842C53.8443 20.583 54.0014 21.0039 54.3141 21.3477C54.6283 21.6907 55.0364 21.8629 55.5399 21.8629C56.1293 21.8629 56.5881 21.6414 56.9162 21.1997C57.245 20.7574 57.4094 20.1743 57.4094 19.4497Z" fill="white"/>
<path d="M68.0614 20.2401C68.0614 21.049 67.7729 21.7072 67.1938 22.2153C66.5574 22.7705 65.6714 23.0478 64.533 23.0478C63.4819 23.0478 62.6392 22.8505 62.0013 22.4554L62.3639 21.1855C63.051 21.59 63.8048 21.7929 64.6262 21.7929C65.2156 21.7929 65.6744 21.6629 66.0039 21.4042C66.332 21.1455 66.4957 20.7982 66.4957 20.3651C66.4957 19.9793 66.3607 19.6541 66.0898 19.3904C65.8204 19.1267 65.3705 18.8816 64.7422 18.6551C63.0319 18.0341 62.1775 17.1244 62.1775 15.9282C62.1775 15.1464 62.477 14.5054 63.0767 14.0066C63.6742 13.5071 64.4713 13.2577 65.4681 13.2577C66.357 13.2577 67.0954 13.4085 67.6848 13.7093L67.2936 14.9513C66.7431 14.6597 66.1206 14.514 65.4241 14.514C64.8735 14.514 64.4434 14.6462 64.1351 14.9091C63.8746 15.1442 63.7439 15.4308 63.7439 15.7702C63.7439 16.1461 63.8929 16.457 64.1924 16.7014C64.453 16.9272 64.9264 17.1716 65.6134 17.4353C66.4539 17.7647 67.0712 18.1499 67.4683 18.5915C67.8639 19.0317 68.0614 19.5827 68.0614 20.2401Z" fill="white"/>
<path d="M73.2354 17.1931H71.5104V20.5224C71.5104 21.3692 71.8143 21.7922 72.4236 21.7922C72.7032 21.7922 72.9352 21.7687 73.1187 21.7215L73.162 22.8784C72.8537 22.9906 72.4478 23.0471 71.945 23.0471C71.3269 23.0471 70.844 22.8634 70.4953 22.4968C70.1481 22.1295 69.9734 21.5136 69.9734 20.6482V17.1916H68.9458V16.0483H69.9734V14.7927L71.5104 14.3411V16.0483H73.2354V17.1931Z" fill="white"/>
<path d="M81.018 19.422C81.018 20.476 80.7083 21.3414 80.0902 22.0181C79.4421 22.7149 78.5818 23.0621 77.5094 23.0621C76.4759 23.0621 75.6531 22.7284 75.0395 22.061C74.4258 21.3935 74.119 20.551 74.119 19.5356C74.119 18.473 74.4346 17.6026 75.0681 16.9258C75.7001 16.2484 76.553 15.9097 77.6254 15.9097C78.6589 15.9097 79.4905 16.2434 80.1181 16.9115C80.7185 17.5597 81.018 18.3965 81.018 19.422ZM79.3944 19.4713C79.3944 18.8388 79.2556 18.2964 78.9745 17.8441C78.6464 17.2967 78.1774 17.0237 77.5696 17.0237C76.9406 17.0237 76.4627 17.2974 76.1346 17.8441C75.8535 18.2972 75.7148 18.8481 75.7148 19.4998C75.7148 20.1323 75.8535 20.6747 76.1346 21.1263C76.473 21.6737 76.9457 21.9467 77.5557 21.9467C78.1532 21.9467 78.6222 21.668 78.9606 21.112C79.249 20.6511 79.3944 20.103 79.3944 19.4713Z" fill="white"/>
<path d="M86.1045 17.3895C85.9497 17.3616 85.7845 17.3473 85.6113 17.3473C85.0608 17.3473 84.635 17.5495 84.3356 17.9547C84.075 18.312 83.9443 18.7637 83.9443 19.3089V22.9069H82.3802L82.3948 18.2091C82.3948 17.4188 82.375 16.6992 82.3361 16.0503H83.6992L83.7564 17.3623H83.7997C83.9649 16.9114 84.2255 16.5484 84.5822 16.2761C84.9309 16.031 85.3074 15.9088 85.7133 15.9088C85.8579 15.9088 85.9886 15.9188 86.1045 15.9367V17.3895Z" fill="white"/>
<path d="M93.1033 19.1539C93.1033 19.4269 93.085 19.657 93.0461 19.8449H88.3513C88.3696 20.5223 88.5965 21.0404 89.0325 21.3977C89.4281 21.7172 89.9397 21.8772 90.568 21.8772C91.2631 21.8772 91.8973 21.7693 92.4676 21.5528L92.7128 22.6104C92.0463 22.8934 91.2595 23.0342 90.3515 23.0342C89.2593 23.0342 88.4019 22.7212 87.778 22.0959C87.1556 21.4706 86.8436 20.631 86.8436 19.5776C86.8436 18.5436 87.1336 17.6825 87.7142 16.9958C88.3219 16.2626 89.1433 15.896 90.1768 15.896C91.1919 15.896 91.9604 16.2626 92.4823 16.9958C92.8956 17.5782 93.1033 18.2985 93.1033 19.1539ZM91.6111 18.7587C91.6213 18.3071 91.5193 17.9169 91.3072 17.5875C91.0363 17.1637 90.6201 16.9522 90.0601 16.9522C89.5485 16.9522 89.1323 17.1587 88.8145 17.5732C88.5539 17.9026 88.399 18.2978 88.3513 18.758H91.6111V18.7587Z" fill="white"/>
<path d="M39.4429 7.54667C39.4429 8.38776 39.1838 9.0209 38.6664 9.44609C38.187 9.83841 37.5059 10.0349 36.6236 10.0349C36.1861 10.0349 35.8118 10.0163 35.4984 9.97919V5.38356C35.9072 5.31925 36.3476 5.28638 36.8232 5.28638C37.6637 5.28638 38.2971 5.46431 38.7243 5.82019C39.2029 6.22251 39.4429 6.79777 39.4429 7.54667ZM38.6319 7.56739C38.6319 7.02215 38.4836 6.60411 38.187 6.31255C37.8905 6.0217 37.4574 5.87593 36.8871 5.87593C36.6449 5.87593 36.4386 5.89165 36.2676 5.92452V9.41822C36.3623 9.43251 36.5355 9.43894 36.7873 9.43894C37.376 9.43894 37.8303 9.27959 38.1503 8.96087C38.4704 8.64216 38.6319 8.17767 38.6319 7.56739Z" fill="white"/>
<path d="M43.7435 8.28121C43.7435 8.7993 43.5915 9.22377 43.2877 9.55678C42.9691 9.89907 42.5471 10.0699 42.02 10.0699C41.5121 10.0699 41.1077 9.90622 40.806 9.5775C40.505 9.2495 40.3546 8.83574 40.3546 8.33695C40.3546 7.81529 40.5094 7.38724 40.8207 7.05495C41.1319 6.72266 41.5503 6.55615 42.0773 6.55615C42.5852 6.55615 42.9933 6.7198 43.3023 7.0478C43.596 7.36651 43.7435 7.77813 43.7435 8.28121ZM42.9456 8.3055C42.9456 7.99465 42.8766 7.7281 42.7394 7.50586C42.5779 7.23717 42.3481 7.10282 42.0494 7.10282C41.7404 7.10282 41.5055 7.23717 41.344 7.50586C41.206 7.7281 41.1377 7.99894 41.1377 8.31908C41.1377 8.62994 41.2067 8.89648 41.344 9.11872C41.5106 9.38742 41.7426 9.52176 42.042 9.52176C42.3357 9.52176 42.5661 9.38527 42.732 9.11158C42.8744 8.88505 42.9456 8.61636 42.9456 8.3055Z" fill="white"/>
<path d="M49.51 6.62476L48.4273 9.9934H47.7226L47.2741 8.53061C47.1604 8.16544 47.0679 7.80242 46.996 7.44226H46.982C46.9152 7.81243 46.8227 8.17473 46.7038 8.53061L46.2274 9.9934H45.5147L44.4966 6.62476H45.2872L45.6784 8.22619C45.7731 8.60493 45.8509 8.9658 45.9133 9.30738H45.9272C45.9845 9.02583 46.0792 8.6671 46.2128 8.23333L46.7038 6.62547H47.3307L47.8012 8.19903C47.9149 8.58277 48.0074 8.95222 48.0786 9.3081H48.0999C48.152 8.96151 48.2306 8.59206 48.3348 8.19903L48.7547 6.62547H49.51V6.62476Z" fill="white"/>
<path d="M53.498 9.99347H52.7288V8.06404C52.7288 7.46949 52.4968 7.17221 52.0315 7.17221C51.8032 7.17221 51.619 7.25368 51.4758 7.41732C51.3342 7.58096 51.2622 7.77391 51.2622 7.99472V9.99275H50.493V7.5874C50.493 7.29155 50.4834 6.97069 50.4651 6.62339H51.1411L51.1771 7.15006H51.1984C51.2879 6.98641 51.4215 6.85135 51.5969 6.74345C51.8054 6.61768 52.0388 6.55408 52.2942 6.55408C52.6172 6.55408 52.8859 6.65555 53.0995 6.85921C53.3652 7.10861 53.498 7.48092 53.498 7.97543V9.99347Z" fill="white"/>
<path d="M55.6191 9.99344H54.8506V5.0791H55.6191V9.99344Z" fill="white"/>
<path d="M60.1481 8.28121C60.1481 8.7993 59.9962 9.22377 59.6923 9.55678C59.3737 9.89907 58.9509 10.0699 58.4246 10.0699C57.916 10.0699 57.5115 9.90622 57.2106 9.5775C56.9096 9.2495 56.7592 8.83574 56.7592 8.33695C56.7592 7.81529 56.914 7.38724 57.2253 7.05495C57.5365 6.72266 57.9549 6.55615 58.4812 6.55615C58.9898 6.55615 59.3972 6.7198 59.707 7.0478C60.0006 7.36651 60.1481 7.77813 60.1481 8.28121ZM59.3495 8.3055C59.3495 7.99465 59.2805 7.7281 59.1432 7.50586C58.9825 7.23717 58.752 7.10282 58.454 7.10282C58.1442 7.10282 57.9094 7.23717 57.7486 7.50586C57.6106 7.7281 57.5423 7.99894 57.5423 8.31908C57.5423 8.62994 57.6113 8.89648 57.7486 9.11872C57.9152 9.38742 58.1472 9.52176 58.4467 9.52176C58.7403 9.52176 58.97 9.38527 59.1359 9.11158C59.279 8.88505 59.3495 8.61636 59.3495 8.3055Z" fill="white"/>
<path d="M63.8711 9.9934H63.1804L63.1231 9.60537H63.1018C62.8655 9.91479 62.5286 10.0699 62.0911 10.0699C61.7645 10.0699 61.5002 9.96767 61.3013 9.76473C61.1207 9.58036 61.0305 9.35097 61.0305 9.07871C61.0305 8.66709 61.2066 8.35338 61.5611 8.13614C61.9149 7.9189 62.4126 7.81243 63.0534 7.81743V7.75454C63.0534 7.31077 62.8141 7.08925 62.3348 7.08925C61.9935 7.08925 61.6925 7.17286 61.4327 7.33864L61.2764 6.847C61.5978 6.65334 61.995 6.55615 62.4633 6.55615C63.3676 6.55615 63.8212 7.02065 63.8212 7.94963V9.19019C63.8212 9.52676 63.8381 9.79474 63.8711 9.9934ZM63.0725 8.83574V8.31622C62.224 8.30193 61.7997 8.52846 61.7997 8.9951C61.7997 9.17089 61.8481 9.30238 61.9472 9.39027C62.0463 9.47817 62.1726 9.52176 62.3231 9.52176C62.4919 9.52176 62.6497 9.4696 62.7936 9.36598C62.9382 9.26165 63.027 9.12944 63.06 8.96723C63.0681 8.93078 63.0725 8.88648 63.0725 8.83574Z" fill="white"/>
<path d="M68.2417 9.99344H67.5591L67.5231 9.45248H67.5018C67.2838 9.8641 66.9124 10.0699 66.3905 10.0699C65.9736 10.0699 65.6264 9.91054 65.3512 9.59183C65.0759 9.27312 64.9387 8.85936 64.9387 8.35128C64.9387 7.80603 65.0877 7.36441 65.3871 7.02711C65.6771 6.71269 66.0323 6.55547 66.4551 6.55547C66.9198 6.55547 67.2449 6.70769 67.4299 7.01282H67.4446V5.0791H68.2146V9.08589C68.2146 9.41389 68.2234 9.71617 68.2417 9.99344ZM67.4446 8.5728V8.01113C67.4446 7.91394 67.4372 7.83533 67.4233 7.77531C67.38 7.59523 67.2868 7.44373 67.1451 7.32153C67.002 7.19933 66.8295 7.13788 66.6306 7.13788C66.3436 7.13788 66.119 7.24864 65.9538 7.47088C65.7901 7.69313 65.7072 7.97682 65.7072 8.32341C65.7072 8.65641 65.7857 8.92653 65.9435 9.13448C66.1101 9.35601 66.3348 9.46678 66.6159 9.46678C66.8684 9.46678 67.0702 9.37459 67.2236 9.18951C67.3719 9.01872 67.4446 8.81291 67.4446 8.5728Z" fill="white"/>
<path d="M74.8209 8.28121C74.8209 8.7993 74.6689 9.22377 74.3651 9.55678C74.0465 9.89907 73.6252 10.0699 73.0974 10.0699C72.5902 10.0699 72.1858 9.90622 71.8834 9.5775C71.5824 9.2495 71.4319 8.83574 71.4319 8.33695C71.4319 7.81529 71.5868 7.38724 71.898 7.05495C72.2093 6.72266 72.6277 6.55615 73.1554 6.55615C73.6626 6.55615 74.0715 6.7198 74.3797 7.0478C74.6733 7.36651 74.8209 7.77813 74.8209 8.28121ZM74.0237 8.3055C74.0237 7.99465 73.9547 7.7281 73.8175 7.50586C73.6553 7.23717 73.4263 7.10282 73.1268 7.10282C72.8185 7.10282 72.5836 7.23717 72.4214 7.50586C72.2834 7.7281 72.2151 7.99894 72.2151 8.31908C72.2151 8.62994 72.2841 8.89648 72.4214 9.11872C72.588 9.38742 72.82 9.52176 73.1194 9.52176C73.413 9.52176 73.6443 9.38527 73.8102 9.11158C73.9518 8.88505 74.0237 8.61636 74.0237 8.3055Z" fill="white"/>
<path d="M78.957 9.99347H78.1884V8.06404C78.1884 7.46949 77.9565 7.17221 77.4904 7.17221C77.2621 7.17221 77.0779 7.25368 76.9355 7.41732C76.7931 7.58096 76.7219 7.77391 76.7219 7.99472V9.99275H75.9519V7.5874C75.9519 7.29155 75.9431 6.97069 75.9247 6.62339H76.6L76.636 7.15006H76.6573C76.7476 6.98641 76.8812 6.85135 77.0559 6.74345C77.2651 6.61768 77.4977 6.55408 77.7539 6.55408C78.0761 6.55408 78.3448 6.65555 78.5584 6.85921C78.8248 7.10861 78.957 7.48092 78.957 7.97543V9.99347Z" fill="white"/>
<path d="M84.1338 7.1858H83.2868V8.82224C83.2868 9.23814 83.4373 9.44609 83.7353 9.44609C83.8733 9.44609 83.9878 9.43466 84.0781 9.41108L84.0979 9.97919C83.9459 10.0349 83.7463 10.0628 83.5004 10.0628C83.1965 10.0628 82.9601 9.97276 82.7891 9.79268C82.6174 9.6126 82.5322 9.3096 82.5322 8.88441V7.1858H82.0265V6.62483H82.5322V6.00742L83.2861 5.78589V6.62412H84.1331V7.1858H84.1338Z" fill="white"/>
<path d="M88.2065 9.99344H87.4365V8.0783C87.4365 7.47446 87.2045 7.17218 86.7399 7.17218C86.3832 7.17218 86.1395 7.34726 86.0059 7.69741C85.9831 7.77102 85.9699 7.86106 85.9699 7.96682V9.99272H85.2014V5.0791H85.9699V7.10929H85.9846C86.2268 6.73984 86.574 6.55547 87.024 6.55547C87.3425 6.55547 87.606 6.65695 87.8152 6.86061C88.0758 7.1143 88.2065 7.49161 88.2065 7.9904V9.99344Z" fill="white"/>
<path d="M92.4072 8.14968C92.4072 8.28403 92.397 8.39694 92.3786 8.48912H90.0716C90.0819 8.82213 90.192 9.07581 90.4056 9.2516C90.6008 9.40882 90.8526 9.48742 91.1609 9.48742C91.5022 9.48742 91.8134 9.43454 92.0938 9.32807L92.2142 9.8483C91.8861 9.98693 91.5 10.0562 91.053 10.0562C90.5172 10.0562 90.0951 9.90261 89.7898 9.59533C89.4829 9.28805 89.331 8.87572 89.331 8.35835C89.331 7.85026 89.4727 7.42722 89.7582 7.08992C90.0562 6.72976 90.4592 6.54968 90.9678 6.54968C91.4655 6.54968 91.8435 6.72976 92.099 7.08992C92.3052 7.37577 92.4072 7.72949 92.4072 8.14968ZM91.6732 7.95602C91.6791 7.73378 91.6285 7.54227 91.5242 7.38077C91.3906 7.17282 91.1873 7.06849 90.9121 7.06849C90.661 7.06849 90.4562 7.16996 90.2999 7.37362C90.1722 7.53584 90.0966 7.72949 90.0716 7.95602H91.6732Z" fill="white"/>
</svg>
