<svg width="105" height="31" viewBox="0 0 105 31" fill="none" xmlns="http://www.w3.org/2000/svg">
<path d="M100.964 0.0471191H4.66728C2.53996 0.0471191 0.81543 1.72605 0.81543 3.79712V26.2971C0.81543 28.3682 2.53996 30.0471 4.66728 30.0471H100.964C103.091 30.0471 104.815 28.3682 104.815 26.2971V3.79712C104.815 1.72605 103.091 0.0471191 100.964 0.0471191Z" fill="black"/>
<path d="M100.964 0.647119C101.822 0.647119 102.645 0.978993 103.251 1.56973C103.858 2.16047 104.199 2.96169 104.199 3.79712V26.2971C104.199 27.1326 103.858 27.9338 103.251 28.5245C102.645 29.1152 101.822 29.4471 100.964 29.4471H4.66728C3.80916 29.4471 2.98618 29.1152 2.3794 28.5245C1.77261 27.9338 1.43173 27.1326 1.43173 26.2971V3.79712C1.43173 2.96169 1.77261 2.16047 2.3794 1.56973C2.98618 0.978993 3.80916 0.647119 4.66728 0.647119H100.964ZM100.964 0.0471191H4.66728C3.64571 0.0471191 2.66597 0.442207 1.94361 1.14547C1.22125 1.84873 0.81543 2.80256 0.81543 3.79712V26.2971C0.81543 27.2917 1.22125 28.2455 1.94361 28.9488C2.66597 29.652 3.64571 30.0471 4.66728 30.0471H100.964C101.985 30.0471 102.965 29.652 103.687 28.9488C104.41 28.2455 104.815 27.2917 104.815 26.2971V3.79712C104.815 2.80256 104.41 1.84873 103.687 1.14547C102.965 0.442207 101.985 0.0471191 100.964 0.0471191Z" fill="#A6A6A6"/>
<path d="M53.3084 16.3597C52.6615 16.3627 52.03 16.5521 51.4936 16.9042C50.9573 17.2562 50.54 17.7551 50.2946 18.3378C50.0491 18.9205 49.9865 19.5609 50.1145 20.1782C50.2426 20.7955 50.5556 21.3621 51.0141 21.8064C51.4726 22.2506 52.056 22.5527 52.6907 22.6745C53.3254 22.7963 53.9829 22.7323 54.5803 22.4906C55.1776 22.2489 55.6881 21.8404 56.0472 21.3165C56.4062 20.7927 56.5979 20.177 56.5979 19.5472C56.6042 19.1257 56.5233 18.7072 56.36 18.3167C56.1967 17.9262 55.9544 17.5717 55.6474 17.2743C55.3405 16.9769 54.9753 16.7427 54.5734 16.5856C54.1716 16.4284 53.7414 16.3516 53.3084 16.3597ZM53.3084 21.4822C52.9106 21.5093 52.5136 21.4192 52.169 21.2237C51.8244 21.0283 51.5482 20.7364 51.3763 20.386C51.2044 20.0357 51.1447 19.6431 51.205 19.2593C51.2653 18.8755 51.4429 18.5183 51.7145 18.234C51.9861 17.9497 52.3393 17.7516 52.7281 17.6653C53.117 17.579 53.5235 17.6086 53.8948 17.7503C54.2661 17.8919 54.5851 18.139 54.8102 18.4595C55.0354 18.78 55.1563 19.1589 55.1573 19.5472C55.1697 19.7932 55.1314 20.0392 55.0446 20.2705C54.9578 20.5019 54.8244 20.714 54.652 20.8943C54.4797 21.0747 54.2721 21.2196 54.0413 21.3206C53.8105 21.4215 53.5613 21.4765 53.3084 21.4822ZM46.1363 16.3597C45.489 16.3612 44.8568 16.5494 44.3194 16.9005C43.782 17.2517 43.3635 17.75 43.1169 18.3326C42.8703 18.9152 42.8065 19.5558 42.9337 20.1736C43.0609 20.7915 43.3734 21.3587 43.8316 21.8037C44.2898 22.2488 44.8731 22.5516 45.508 22.674C46.1429 22.7964 46.8009 22.7328 47.3987 22.4913C47.9965 22.2499 48.5074 21.8413 48.8668 21.3173C49.2262 20.7933 49.418 20.1773 49.418 19.5472C49.4243 19.1257 49.3434 18.7072 49.1801 18.3167C49.0168 17.9262 48.7745 17.5717 48.4676 17.2743C48.1607 16.9769 47.7954 16.7427 47.3936 16.5856C46.9917 16.4284 46.5615 16.3516 46.1285 16.3597H46.1363ZM46.1363 21.4822C45.7382 21.5108 45.3406 21.4221 44.9951 21.2276C44.6495 21.0331 44.3722 20.7419 44.199 20.3918C44.0259 20.0417 43.9651 19.6489 44.0244 19.2647C44.0838 18.8805 44.2606 18.5225 44.5318 18.2375C44.803 17.9524 45.1561 17.7535 45.5451 17.6665C45.9341 17.5796 46.341 17.6087 46.7128 17.75C47.0845 17.8913 47.404 18.1383 47.6296 18.4589C47.8551 18.7794 47.9764 19.1587 47.9774 19.5472C47.9898 19.7932 47.9515 20.0392 47.8648 20.2705C47.778 20.5019 47.6445 20.714 47.4722 20.8943C47.2999 21.0747 47.0922 21.2196 46.8614 21.3206C46.6307 21.4215 46.3815 21.4765 46.1285 21.4822H46.1363ZM37.5928 17.3422V18.6922H40.9208C40.8687 19.3281 40.5972 19.9281 40.1505 20.3947C39.8175 20.7249 39.4173 20.9835 38.9754 21.154C38.5336 21.3246 38.06 21.4031 37.5851 21.3847C36.6044 21.3847 35.6639 21.0054 34.9704 20.3303C34.277 19.6552 33.8874 18.7395 33.8874 17.7847C33.8874 16.8299 34.277 15.9143 34.9704 15.2391C35.6639 14.564 36.6044 14.1847 37.5851 14.1847C38.5233 14.1698 39.4292 14.5177 40.1043 15.1522L41.0826 14.1997C40.6269 13.7505 40.0833 13.3949 39.4838 13.154C38.8844 12.913 38.2413 12.7917 37.5928 12.7972C36.908 12.7713 36.2248 12.8802 35.5842 13.1174C34.9436 13.3547 34.3588 13.7154 33.8648 14.178C33.3709 14.6405 32.9779 15.1954 32.7095 15.8094C32.441 16.4233 32.3027 17.0837 32.3027 17.751C32.3027 18.4182 32.441 19.0786 32.7095 19.6926C32.9779 20.3065 33.3709 20.8614 33.8648 21.324C34.3588 21.7865 34.9436 22.1472 35.5842 22.3845C36.2248 22.6217 36.908 22.7307 37.5928 22.7047C38.2522 22.7337 38.9104 22.6249 39.523 22.3856C40.1355 22.1462 40.6884 21.7819 41.1443 21.3172C41.9514 20.4539 42.3823 19.319 42.346 18.1522C42.3485 17.8679 42.3227 17.5841 42.269 17.3047L37.5928 17.3422ZM72.4983 18.3922C72.2974 17.8168 71.9217 17.3143 71.421 16.9513C70.9202 16.5884 70.318 16.3821 69.6942 16.3597C69.2728 16.3589 68.8557 16.4423 68.4687 16.6046C68.0817 16.767 67.733 17.0049 67.4442 17.3036C67.1554 17.6024 66.9326 17.9556 66.7896 18.3415C66.6466 18.7274 66.5864 19.1378 66.6127 19.5472C66.6033 19.9664 66.6808 20.3831 66.8406 20.7725C67.0004 21.1618 67.2391 21.5159 67.5426 21.8134C67.846 22.1109 68.208 22.3458 68.6068 22.5041C69.0056 22.6624 69.433 22.7409 69.8637 22.7347C70.4025 22.7375 70.9337 22.6102 71.4096 22.3641C71.8856 22.1181 72.2914 21.7609 72.5908 21.3247L71.4737 20.5747C71.307 20.8453 71.071 21.0691 70.7888 21.2242C70.5065 21.3794 70.1878 21.4605 69.8637 21.4597C69.53 21.4721 69.2002 21.3864 68.9171 21.2139C68.6341 21.0413 68.411 20.7899 68.2767 20.4922L72.6601 18.7297L72.4983 18.3922ZM68.0302 19.4572C68.0146 19.2252 68.0466 18.9925 68.1246 18.7728C68.2025 18.553 68.3246 18.3506 68.4839 18.1774C68.6432 18.0042 68.8363 17.8636 69.0521 17.764C69.2678 17.6644 69.5018 17.6077 69.7404 17.5972C69.9889 17.5813 70.2367 17.6367 70.4531 17.7567C70.6695 17.8767 70.8449 18.056 70.9576 18.2722L68.0302 19.4572ZM64.4711 22.5472H65.9117V13.1722H64.4711V22.5472ZM62.1137 17.0722H62.0598C61.8427 16.8359 61.5767 16.6469 61.2793 16.5176C60.9819 16.3884 60.6599 16.3218 60.3342 16.3222C59.4923 16.362 58.6984 16.7155 58.117 17.3096C57.5356 17.9038 57.2114 18.6929 57.2114 19.5135C57.2114 20.334 57.5356 21.1231 58.117 21.7173C58.6984 22.3114 59.4923 22.665 60.3342 22.7047C60.6606 22.7101 60.9843 22.6457 61.2825 22.5161C61.5806 22.3865 61.8459 22.1949 62.0598 21.9547H62.106V22.4122C62.106 23.6347 61.4358 24.2872 60.3573 24.2872C59.9981 24.279 59.6495 24.167 59.3559 23.9653C59.0623 23.7636 58.837 23.4814 58.7087 23.1547L57.453 23.6647C57.6894 24.2245 58.0921 24.7027 58.6096 25.0381C59.127 25.3736 59.7356 25.5508 60.3573 25.5472C62.0444 25.5472 63.4388 24.5797 63.4388 22.2247V16.5472H62.1137V17.0722ZM60.4651 21.4822C59.9682 21.4396 59.5057 21.2173 59.1688 20.8591C58.8319 20.5009 58.645 20.0329 58.645 19.5472C58.645 19.0615 58.8319 18.5935 59.1688 18.2353C59.5057 17.8772 59.9682 17.6548 60.4651 17.6122C60.7115 17.6245 60.9529 17.6847 61.175 17.7892C61.3971 17.8938 61.5955 18.0405 61.7585 18.2208C61.9214 18.4012 62.0457 18.6114 62.1239 18.8392C62.2021 19.067 62.2327 19.3077 62.2139 19.5472C62.2349 19.7877 62.2056 20.0299 62.1277 20.2591C62.0499 20.4882 61.9251 20.6997 61.7609 20.8805C61.5967 21.0614 61.3965 21.208 61.1725 21.3114C60.9484 21.4148 60.7052 21.4729 60.4574 21.4822H60.4651ZM79.2468 13.1722H75.8032V22.5472H77.2438V18.9922H79.2545C79.665 19.0209 80.0773 18.967 80.4655 18.8338C80.8537 18.7005 81.2096 18.4909 81.5109 18.2178C81.8122 17.9448 82.0525 17.6143 82.2168 17.2468C82.3811 16.8794 82.4659 16.483 82.4659 16.0822C82.4659 15.6815 82.3811 15.285 82.2168 14.9176C82.0525 14.5502 81.8122 14.2196 81.5109 13.9466C81.2096 13.6736 80.8537 13.4639 80.4655 13.3307C80.0773 13.1974 79.665 13.1435 79.2545 13.1722H79.2468ZM79.2468 17.6722H77.2361V14.4772H79.2776C79.7158 14.4772 80.1361 14.6467 80.446 14.9484C80.7559 15.2501 80.93 15.6593 80.93 16.086C80.93 16.5126 80.7559 16.9218 80.446 17.2235C80.1361 17.5252 79.7158 17.6947 79.2776 17.6947L79.2468 17.6722ZM88.1291 16.3222C87.6047 16.2917 87.0825 16.411 86.6267 16.6655C86.171 16.92 85.8015 17.2986 85.5638 17.7547L86.8426 18.2722C86.9687 18.046 87.1596 17.8603 87.3921 17.7378C87.6247 17.6153 87.8887 17.5612 88.1522 17.5822C88.3351 17.5614 88.5204 17.5763 88.6973 17.6259C88.8742 17.6756 89.0392 17.7591 89.1826 17.8715C89.3261 17.9839 89.4451 18.123 89.5327 18.2806C89.6203 18.4383 89.6748 18.6113 89.693 18.7897V18.8872C89.2303 18.6487 88.7143 18.5251 88.1908 18.5272C86.8118 18.5272 85.4174 19.2772 85.4174 20.6347C85.431 20.9242 85.5041 21.208 85.6324 21.4695C85.7606 21.731 85.9414 21.9648 86.164 22.1571C86.3867 22.3493 86.6467 22.4962 86.9286 22.589C87.2106 22.6818 87.5088 22.7186 87.8056 22.6972C88.1684 22.7226 88.5315 22.6524 88.8568 22.494C89.1821 22.3357 89.4576 22.095 89.6545 21.7972H89.7007V22.5472H91.0874V18.9397C91.0874 17.2972 89.8085 16.3447 88.1677 16.3447L88.1291 16.3222ZM87.952 21.4597C87.482 21.4597 86.8272 21.2272 86.8272 20.6647C86.8272 19.9147 87.6438 19.6672 88.368 19.6672C88.8256 19.6562 89.2779 19.765 89.6776 19.9822C89.6294 20.3883 89.4321 20.7637 89.1221 21.0393C88.8121 21.315 88.4102 21.4722 87.9905 21.4822L87.952 21.4597ZM96.141 16.5472L94.4924 20.6122H94.4462L92.736 16.5472H91.1952L93.7605 22.2322L92.2968 25.3897H93.7991L97.7434 16.5472H96.141ZM83.1911 22.5472H84.6317V13.1722H83.1911V22.5472Z" fill="white"/>
<path d="M37.2983 7.77402C37.3114 8.04911 37.267 8.32393 37.1676 8.58178C37.0683 8.83963 36.9162 9.07514 36.7205 9.27402C36.5021 9.49497 36.2382 9.6686 35.9462 9.78362C35.6542 9.89863 35.3405 9.95243 35.0257 9.94152C34.5481 9.93788 34.0822 9.79709 33.6864 9.53678C33.2905 9.27648 32.9824 8.90824 32.8007 8.47821C32.6189 8.04817 32.5715 7.57547 32.6644 7.11934C32.7574 6.6632 32.9866 6.24392 33.3232 5.91402C33.5445 5.69411 33.8097 5.52074 34.1026 5.40463C34.3954 5.28853 34.7096 5.23216 35.0257 5.23902C35.3514 5.23797 35.6739 5.30177 35.9733 5.42652C36.252 5.53599 36.5002 5.70819 36.6974 5.92902L36.2891 6.32652C36.1354 6.14847 35.9412 6.00767 35.7219 5.91525C35.5027 5.82283 35.2643 5.78133 35.0257 5.79402C34.7851 5.79287 34.5467 5.83904 34.3248 5.92976C34.103 6.02048 33.9022 6.15389 33.7346 6.32198C33.567 6.49006 33.436 6.68937 33.3494 6.90796C33.2628 7.12654 33.2225 7.35989 33.2308 7.59402C33.2257 7.94362 33.3271 8.28685 33.5222 8.5804C33.7173 8.87395 33.9973 9.10467 34.327 9.24347C34.6566 9.38226 35.021 9.4229 35.3744 9.36026C35.7277 9.29763 36.054 9.13452 36.3122 8.89152C36.5493 8.64142 36.686 8.31665 36.6974 7.97652H35.0257V7.43652H37.2675C37.2881 7.54791 37.2984 7.66085 37.2983 7.77402ZM40.8266 5.89902H38.7466V7.32402H40.6417V7.86402H38.7466V9.28902H40.8266V9.84402H38.1303V5.34402H40.8266V5.89902ZM43.3534 9.84402H42.7602V5.89902H41.466V5.34402H44.6785V5.89902H43.3534V9.84402ZM46.9434 9.84402V5.34402H47.5365V9.84402H46.9434ZM50.1712 9.84402H49.578V5.89902H48.2838V5.34402H51.4577V5.89902H50.1712V9.84402ZM57.4743 9.25902C57.024 9.69503 56.4146 9.93977 55.7795 9.93977C55.1444 9.93977 54.5351 9.69503 54.0847 9.25902C53.6469 8.80791 53.4031 8.21085 53.4031 7.59027C53.4031 6.96969 53.6469 6.37263 54.0847 5.92152C54.3067 5.70383 54.5707 5.53105 54.8616 5.41315C55.1525 5.29525 55.4644 5.23455 55.7795 5.23455C56.0946 5.23455 56.4066 5.29525 56.6974 5.41315C56.9883 5.53105 57.2523 5.70383 57.4743 5.92152C57.9138 6.37177 58.1589 6.96916 58.1589 7.59027C58.1589 8.21139 57.9138 8.80878 57.4743 9.25902ZM54.5238 8.88402C54.8573 9.20736 55.3088 9.3889 55.7795 9.3889C56.2502 9.3889 56.7017 9.20736 57.0352 8.88402C57.3643 8.53079 57.5467 8.07094 57.5467 7.59402C57.5467 7.1171 57.3643 6.65726 57.0352 6.30402C56.7017 5.98068 56.2502 5.79914 55.7795 5.79914C55.3088 5.79914 54.8573 5.98068 54.5238 6.30402C54.1947 6.65726 54.0124 7.1171 54.0124 7.59402C54.0124 8.07094 54.1947 8.53079 54.5238 8.88402ZM58.992 9.84402V5.34402H59.7161L61.9656 8.84652V5.34402H62.5588V9.84402H61.9425L59.5928 6.17652V9.84402H58.992Z" fill="white"/>
<path fill-rule="evenodd" clip-rule="evenodd" d="M55.7795 5.30955C55.4746 5.30955 55.1727 5.36829 54.8912 5.48239C54.61 5.59637 54.3547 5.76334 54.14 5.9737C53.7162 6.41081 53.4801 6.98916 53.4801 7.59027C53.4801 8.19131 53.7162 8.76959 54.1399 9.20667C54.5757 9.62819 55.1651 9.86478 55.7795 9.86478C56.3939 9.86478 56.9834 9.62815 57.4192 9.20658C57.8446 8.77036 58.0818 8.1918 58.0818 7.59027C58.0818 6.98867 57.8446 6.41004 57.4191 5.9738C57.2044 5.76339 56.9491 5.59639 56.6678 5.48239C56.3863 5.36829 56.0844 5.30955 55.7795 5.30955ZM54.832 5.34391C55.1322 5.2222 55.4543 5.15955 55.7795 5.15955C56.1048 5.15955 56.4268 5.2222 56.727 5.34391C57.0273 5.46562 57.2998 5.64397 57.529 5.86868L57.5302 5.86985C57.9833 6.33403 58.2359 6.94993 58.2359 7.59027C58.2359 8.23062 57.9833 8.8465 57.5302 9.31069L57.5287 9.31222C57.0639 9.76221 56.435 10.0148 55.7795 10.0148C55.124 10.0148 54.4952 9.76219 54.0304 9.3122L54.0287 9.31055C53.5774 8.84552 53.326 8.23001 53.326 7.59027C53.326 6.95054 53.5774 6.33505 54.0287 5.87002L54.03 5.86867C54.2591 5.64395 54.5317 5.46562 54.832 5.34391ZM35.024 5.314C34.7184 5.30737 34.4147 5.36186 34.1316 5.47409C33.8485 5.58633 33.5921 5.75392 33.3782 5.9665L33.3779 5.96688C33.0519 6.28631 32.83 6.69228 32.74 7.13393C32.65 7.57559 32.6959 8.03328 32.8719 8.44966C33.0479 8.86604 33.3462 9.22259 33.7295 9.47464C34.1127 9.72668 34.5639 9.863 35.0263 9.86652L35.0285 9.86654C35.3325 9.87708 35.6353 9.82515 35.9173 9.71409C36.1993 9.60304 36.454 9.4354 36.665 9.22208C36.8534 9.03056 36.9999 8.80376 37.0955 8.55544C37.1912 8.30711 37.234 8.04243 37.2214 7.77749L37.2983 7.77402L37.2213 7.77399C37.2213 7.68614 37.2149 7.59842 37.202 7.51152H35.1028V7.90152H36.777L36.7744 7.97897C36.7624 8.33709 36.6185 8.67905 36.3689 8.94238L36.3659 8.94553C36.0967 9.19883 35.7565 9.36876 35.3882 9.43405C35.0199 9.49934 34.64 9.45698 34.2964 9.3123C33.9528 9.16763 33.6609 8.92713 33.4575 8.62114C33.2545 8.31566 33.1488 7.95857 33.1537 7.59479C33.1453 7.35118 33.1874 7.10841 33.2775 6.88097C33.3678 6.65297 33.5045 6.44507 33.6793 6.26973C33.8542 6.0944 34.0636 5.95525 34.295 5.86061C34.5257 5.76627 34.7736 5.71812 35.0238 5.71901C35.2736 5.70607 35.523 5.74968 35.7525 5.84642C35.9571 5.93264 36.1408 6.05895 36.2925 6.21717L36.5912 5.92642C36.4103 5.73932 36.1897 5.59239 35.9445 5.49608L35.943 5.49549C35.6532 5.37476 35.3412 5.313 35.026 5.31402L35.024 5.314ZM37.3754 7.7723C37.3887 8.05696 37.3425 8.34129 37.2398 8.60811C37.1368 8.87548 36.9791 9.11968 36.7762 9.3259C36.5502 9.55444 36.2772 9.73418 35.9751 9.85314C35.6734 9.97198 35.3493 10.0276 35.0241 10.0165C34.5316 10.0126 34.0513 9.86731 33.6432 9.59893C33.2349 9.33036 32.917 8.95043 32.7294 8.50675C32.5419 8.06307 32.493 7.57536 32.5889 7.10474C32.6848 6.63421 32.9211 6.20169 33.2684 5.86135C33.497 5.6342 33.771 5.45511 34.0735 5.33517C34.3758 5.21532 34.7001 5.15707 35.0265 5.16402C35.362 5.16306 35.6943 5.22882 36.0029 5.35726C36.2926 5.47117 36.5505 5.65024 36.7556 5.87981L36.8027 5.9326L36.2842 6.43737L36.2302 6.37478C36.0841 6.20563 35.8996 6.07187 35.6913 5.98408C35.483 5.89628 35.2566 5.85685 35.0299 5.86891L35.0254 5.86915C34.7951 5.86805 34.567 5.9121 34.3547 5.99891C34.1424 6.08572 33.9503 6.21338 33.7899 6.37422C33.6295 6.53506 33.5041 6.72578 33.4213 6.93494C33.3384 7.1441 33.2998 7.3674 33.3078 7.59143L33.3079 7.59508C33.3031 7.92986 33.4001 8.25854 33.5869 8.53966C33.7737 8.82077 34.0419 9.04172 34.3575 9.17463C34.6732 9.30754 35.0222 9.34646 35.3606 9.28648C35.6982 9.22662 36.0101 9.07097 36.2571 8.83909C36.4627 8.62152 36.5882 8.34454 36.6155 8.05152H34.9487V7.36152H37.3319L37.3433 7.42326C37.3646 7.53846 37.3753 7.65526 37.3754 7.7723ZM38.0533 5.26902H40.9037V5.97402H38.8237V7.24902H40.7188V7.93902H38.8237V9.21402H40.9037V9.91902H38.0533V5.26902ZM38.2074 5.41902V9.76902H40.7496V9.36402H38.6696V7.78902H40.5647V7.39902H38.6696V5.82402H40.7496V5.41902H38.2074ZM41.389 5.26902H44.7555V5.97402H43.4305V9.91902H42.6832V5.97402H41.389V5.26902ZM41.5431 5.41902V5.82402H42.8373V9.76902H43.2764V5.82402H44.6014V5.41902H41.5431ZM46.8663 5.26902H47.6136V9.91902H46.8663V5.26902ZM47.0204 5.41902V9.76902H47.4595V5.41902H47.0204ZM48.2068 5.26902H51.5348V5.97402H50.2482V9.91902H49.501V5.97402H48.2068V5.26902ZM48.3608 5.41902V5.82402H49.6551V9.76902H50.0942V5.82402H51.3807V5.41902H48.3608ZM58.9149 5.26902H59.7588L61.8885 8.58511V5.26902H62.6358V9.91902H61.8997L59.6699 6.43849V9.91902H58.9149V5.26902ZM59.069 5.41902V9.76902H59.5158V5.91456L61.9852 9.76902H62.4817V5.41902H62.0426V9.10794L59.6734 5.41902H59.069ZM54.4694 6.25088C54.8174 5.91354 55.2885 5.72414 55.7795 5.72414C56.2706 5.72414 56.7416 5.91354 57.0896 6.25088L57.0923 6.25357C57.4343 6.6206 57.6237 7.09848 57.6237 7.59402C57.6237 8.08957 57.4343 8.56738 57.0923 8.93441L57.0896 8.93723C56.7417 9.27457 56.2706 9.4639 55.7795 9.4639C55.2885 9.4639 54.8174 9.2745 54.4694 8.93717L54.5238 8.88402L54.4667 8.93441C54.1248 8.56738 53.9353 8.08957 53.9353 7.59402C53.9353 7.09848 54.1248 6.62067 54.4667 6.25363L54.4694 6.25088ZM54.5796 8.83223C54.8985 9.14073 55.3299 9.3139 55.7795 9.3139C56.2292 9.3139 56.6605 9.14073 56.9795 8.83223C57.2949 8.49298 57.4696 8.05168 57.4696 7.59402C57.4696 7.13637 57.2949 6.69507 56.9795 6.35582C56.6605 6.04732 56.2292 5.87414 55.7795 5.87414C55.3299 5.87414 54.8985 6.04732 54.5796 6.35582C54.2641 6.69507 54.0894 7.13637 54.0894 7.59402C54.0894 8.05168 54.2641 8.49298 54.5796 8.83223Z" fill="white"/>
<path d="M8.85805 5.70216C8.60696 5.99549 8.48022 6.37101 8.50368 6.75216V23.3422C8.48022 23.7233 8.60696 24.0988 8.85805 24.3922L8.91197 24.4447L18.4569 15.1597V14.9422L8.91197 5.64966L8.85805 5.70216Z" fill="url(#paint0_linear_32_320)"/>
<path d="M21.6154 18.2572L18.4568 15.1597V14.9422L21.6154 11.8372L21.6847 11.8747L25.4672 13.9672C26.5457 14.5597 26.5457 15.5347 25.4672 16.1347L21.7001 18.2197L21.6154 18.2572Z" fill="url(#paint1_linear_32_320)"/>
<path d="M21.7078 18.2121L18.4568 15.0471L8.85803 24.3921C9.07787 24.5803 9.3583 24.6877 9.65088 24.6959C9.94346 24.7042 10.2298 24.6126 10.4604 24.4371L21.7155 18.2121" fill="url(#paint2_linear_32_320)"/>
<path d="M21.7077 11.8822L10.4526 5.65716C10.222 5.48167 9.93565 5.39012 9.64307 5.39834C9.35049 5.40655 9.07005 5.51402 8.85022 5.70216L18.4567 15.0472L21.7077 11.8822Z" fill="url(#paint3_linear_32_320)"/>
<path opacity="0.2" d="M21.6154 18.1447L10.4527 24.3322C10.2303 24.494 9.96003 24.5815 9.68233 24.5815C9.40462 24.5815 9.13437 24.494 8.91196 24.3322L8.85803 24.3847L8.91196 24.4372C9.13387 24.6002 9.40431 24.6884 9.68233 24.6884C9.96035 24.6884 10.2308 24.6002 10.4527 24.4372L21.7078 18.2122L21.6154 18.1447Z" fill="black"/>
<path opacity="0.12" d="M8.85805 24.2871C8.60696 23.9938 8.48022 23.6183 8.50368 23.2371V23.3496C8.48022 23.7308 8.60696 24.1063 8.85805 24.3996L8.91197 24.3471L8.85805 24.2871ZM25.4672 16.0221L21.6154 18.1446L21.6847 18.2121L25.4672 16.1271C25.6819 16.029 25.8661 15.8774 26.0013 15.6878C26.1366 15.4982 26.2181 15.2772 26.2376 15.0471C26.1943 15.2561 26.1023 15.4527 25.9688 15.6217C25.8352 15.7908 25.6636 15.9277 25.4672 16.0221Z" fill="black"/>
<path opacity="0.25" d="M10.4525 5.76183L25.467 14.0718C25.6635 14.1662 25.835 14.3032 25.9686 14.4722C26.1021 14.6412 26.1941 14.8378 26.2374 15.0468C26.2179 14.8168 26.1364 14.5958 26.0012 14.4061C25.8659 14.2165 25.6817 14.065 25.467 13.9668L10.4525 5.65683C9.37401 5.06433 8.49579 5.55933 8.49579 6.75933V6.87183C8.5189 5.66433 9.38172 5.16933 10.4525 5.76183Z" fill="white"/>
<defs>
<linearGradient id="paint0_linear_32_320" x1="17.6095" y1="6.57966" x2="5.02897" y2="19.5018" gradientUnits="userSpaceOnUse">
<stop stop-color="#00A0FF"/>
<stop offset="0.01" stop-color="#00A1FF"/>
<stop offset="0.26" stop-color="#00BEFF"/>
<stop offset="0.51" stop-color="#00D2FF"/>
<stop offset="0.76" stop-color="#00DFFF"/>
<stop offset="1" stop-color="#00E3FF"/>
</linearGradient>
<linearGradient id="paint1_linear_32_320" x1="26.877" y1="15.0472" x2="8.24174" y2="15.0472" gradientUnits="userSpaceOnUse">
<stop stop-color="#FFE000"/>
<stop offset="0.41" stop-color="#FFBD00"/>
<stop offset="0.78" stop-color="#FFA500"/>
<stop offset="1" stop-color="#FF9C00"/>
</linearGradient>
<linearGradient id="paint2_linear_32_320" x1="19.9437" y1="16.7721" x2="2.87959" y2="34.292" gradientUnits="userSpaceOnUse">
<stop stop-color="#FF3A44"/>
<stop offset="1" stop-color="#C31162"/>
</linearGradient>
<linearGradient id="paint3_linear_32_320" x1="6.43896" y1="0.182156" x2="14.0562" y2="8.00631" gradientUnits="userSpaceOnUse">
<stop stop-color="#32A071"/>
<stop offset="0.07" stop-color="#2DA771"/>
<stop offset="0.48" stop-color="#15CF74"/>
<stop offset="0.8" stop-color="#06E775"/>
<stop offset="1" stop-color="#00F076"/>
</linearGradient>
</defs>
</svg>
