<svg width="56" height="56" viewBox="0 0 56 56" fill="none" xmlns="http://www.w3.org/2000/svg">
<circle cx="28" cy="28" r="28" fill="#F3FBF8"/>
<path d="M34.4722 22H35.9217C37.1292 22 38.1392 21.1395 38.3712 20H36.9217C35.7147 20 34.7047 20.8605 34.4722 22Z" fill="#09A66D"/>
<path d="M23 17.5C23.0495 17.5 23.0975 17.506 23.147 17.5075L23.498 13.9975C23.5 13.703 23.297 13.5 23.0475 13.5H22.953C22.703 13.5 22.5 13.703 22.5 13.9525L22.8535 17.5075C22.9025 17.506 22.9505 17.5 23 17.5Z" fill="#09A66D"/>
<path d="M19 28C19 27.8295 19.0175 27.663 19.045 27.5H18V27.8425C18.3745 28.021 18.713 28.262 19 28.555V28Z" fill="#09A66D"/>
<path d="M18.5951 15.7781L20.3056 18.2961C20.4396 18.2096 20.5781 18.1296 20.7206 18.0561L19.6921 15.2276C19.6846 15.2076 19.6771 15.1891 19.6676 15.1711C19.5971 15.0301 19.4851 14.9326 19.3456 14.8866C19.2061 14.8401 19.0576 14.8511 18.9271 14.9166L18.8021 14.9791C18.5316 15.1141 18.4216 15.4441 18.5571 15.7146C18.5681 15.7346 18.5811 15.7571 18.5951 15.7781Z" fill="#09A66D"/>
<path d="M20.691 26.5H26.26L26.916 23.352C26.9715 23.084 27 22.8095 27 22.536C27 20.2945 25.2055 18.5 23 18.5C20.7945 18.5 19 20.2945 19 22.5C19 22.8095 19.0285 23.084 19.084 23.352L19.662 26.125C20.212 25.44 21.055 25 22 25V26C21.4975 26 21.043 26.1925 20.691 26.5ZM24.5 20.5H25.5V21.5H24.5V20.5ZM24.5 22.5H25.5V23.5H24.5V22.5ZM24.5 24.5H25.5V25.5H24.5V24.5Z" fill="#09A66D"/>
<path d="M17.5002 30.5H18.9497C18.7172 29.3605 17.7077 28.5 16.5002 28.5H15.0507C15.2827 29.6395 16.2927 30.5 17.5002 30.5Z" fill="#09A66D"/>
<path d="M27.4055 15.7765C27.4185 15.7565 27.432 15.7345 27.443 15.712C27.5775 15.4435 27.4675 15.1135 27.197 14.9785L27.072 14.916C26.941 14.851 26.7935 14.8395 26.6535 14.886C26.5145 14.9325 26.402 15.03 26.3365 15.161C26.3225 15.189 26.3145 15.2075 26.3075 15.2265L25.279 18.055C25.4215 18.1285 25.56 18.2085 25.6945 18.295L27.4055 15.7765Z" fill="#09A66D"/>
<path d="M26.4921 36.5H40.5001V33.5H25.8261C26.2676 34.4285 26.4916 35.449 26.4921 36.5ZM38.5001 34.5H39.5001V35.5H38.5001V34.5Z" fill="#09A66D"/>
<path d="M25.2316 40.5H39.0001C39.8271 40.5 40.5001 39.827 40.5001 39V37.5H26.4281C26.2686 38.6015 25.8476 39.623 25.2316 40.5ZM38.5001 38.5H39.5001V39.5H38.5001V38.5Z" fill="#09A66D"/>
<path d="M20.071 27.5C20.029 27.661 20 27.8265 20 28V28.5H40.5H41H42.5V27.5H20.071Z" fill="#09A66D"/>
<path d="M20 30.9335C20.1005 30.909 20.201 30.8835 20.2925 30.844C21.8175 30.1915 23.5925 30.5835 24.7055 31.821C24.8995 32.0365 25.0735 32.2655 25.237 32.4995H40.5V29.4995H20V30.9335ZM38.5 30.5H39.5V31.5H38.5V30.5Z" fill="#09A66D"/>
<path d="M23.9625 32.4899C23.1485 31.5849 21.801 31.2854 20.686 31.7634C20.4715 31.8549 20.2395 31.9179 20 31.9564V32.8979C20.4965 32.7129 20.968 32.3234 21.147 32.1454L21.8535 32.8534C21.7365 32.9709 20.6735 33.9999 19.5 33.9999C18.3265 33.9999 17.2635 32.9709 17.1465 32.8534L17.853 32.1454C18.032 32.3229 18.5035 32.7124 19 32.8979V31.4999H17.5C17.3305 31.4999 17.1655 31.4839 17.0025 31.4604C16.3015 31.5104 15.5605 31.9024 15.0145 32.5154C14.038 33.6139 13.5 35.0284 13.5 36.4999C13.5 38.1464 14.154 39.6819 15.3405 40.8239C16.527 41.9654 18.08 42.5549 19.739 42.4954C22.8295 42.3759 25.3575 39.8619 25.4945 36.7724C25.564 35.1869 25.02 33.6659 23.9625 32.4899ZM19.5 41.4999C16.743 41.4999 14.5 39.2569 14.5 36.4999H15.5C15.5 38.7054 17.2945 40.4999 19.5 40.4999V41.4999Z" fill="#09A66D"/>
<path d="M38.3854 26.5C38.1464 25.571 37.6899 24.7115 37.0409 23.99C36.2264 23.085 34.8789 22.7865 33.7639 23.2635C33.6789 23.3 33.5899 23.3305 33.4999 23.359V19C33.4999 18.173 34.1729 17.5 34.9999 17.5H35.4999V16.5H34.9999C33.6214 16.5 32.4999 17.6215 32.4999 19V23.359C32.4099 23.3305 32.3209 23.3 32.2359 23.2635C31.1214 22.7865 29.7734 23.085 28.9589 23.99C28.3099 24.7115 27.8534 25.5705 27.6144 26.5H32.9999H38.3854ZM30.7534 24.069C30.7609 24.073 31.5179 24.5 32.9999 24.5C34.4819 24.5 35.2389 24.073 35.2464 24.069L35.7569 24.9285C35.7184 24.952 34.7844 25.5 32.9999 25.5C31.2154 25.5 30.2814 24.952 30.2424 24.9285L30.7534 24.069Z" fill="#09A66D"/>
</svg>
