<svg width="56" height="56" viewBox="0 0 56 56" fill="none" xmlns="http://www.w3.org/2000/svg">
<circle cx="28" cy="28" r="28" fill="#F3FBF8"/>
<g clip-path="url(#clip0_32_166)">
<path d="M28.0023 12C23.4308 12 19.6939 15.7369 19.6939 20.3084C19.6939 24.8799 23.4308 28.6168 28.0023 28.6168C32.5737 28.6168 36.3107 24.8799 36.3107 20.3084C36.3107 15.7369 32.5737 12 28.0023 12Z" fill="#09A66D"/>
<path d="M42.2607 35.2563C42.043 34.7121 41.7528 34.2041 41.4263 33.7325C39.7573 31.2653 37.1814 29.6327 34.2789 29.2336C33.9161 29.1973 33.517 29.2698 33.2268 29.4875C31.7029 30.6123 29.8889 31.1927 28.0023 31.1927C26.1156 31.1927 24.3016 30.6123 22.7777 29.4875C22.4875 29.2698 22.0884 29.161 21.7256 29.2336C18.8231 29.6327 16.2109 31.2653 14.5782 33.7325C14.2517 34.2041 13.9614 34.7484 13.7438 35.2563C13.635 35.474 13.6712 35.728 13.78 35.9457C14.0703 36.4536 14.4331 36.9616 14.7596 37.3969C15.2675 38.0863 15.8118 38.703 16.4286 39.2835C16.9365 39.7914 17.517 40.2631 18.0975 40.7348C20.9637 42.8754 24.4105 44 27.966 44C31.5216 44 34.9683 42.8753 37.8345 40.7348C38.415 40.2994 38.9954 39.7914 39.5034 39.2835C40.0839 38.703 40.6644 38.0862 41.1724 37.3969C41.5352 36.9252 41.8618 36.4536 42.152 35.9457C42.3333 35.728 42.3695 35.4739 42.2607 35.2563Z" fill="#09A66D"/>
</g>
<defs>
<clipPath id="clip0_32_166">
<rect width="32" height="32" fill="white" transform="translate(12 12)"/>
</clipPath>
</defs>
</svg>
