<svg width="56" height="56" viewBox="0 0 56 56" fill="none" xmlns="http://www.w3.org/2000/svg">
<circle cx="28" cy="28" r="28" fill="#F3FBF8"/>
<g clip-path="url(#clip0_32_181)">
<path d="M43.9542 24.3286C43.8439 23.9891 43.5506 23.7418 43.1974 23.6905L33.2773 22.2489L28.8408 13.2597C28.6829 12.9397 28.357 12.7372 28.0001 12.7372C27.6433 12.7372 27.3174 12.9397 27.1595 13.2597L22.7227 22.2489L12.8028 23.6905C12.4497 23.7418 12.1562 23.9891 12.0461 24.3285C11.9357 24.668 12.0277 25.0405 12.2832 25.2895L19.4612 32.2867L17.767 42.1668C17.7067 42.5186 17.8513 42.874 18.14 43.0838C18.4287 43.2935 18.8113 43.3213 19.1273 43.1551L28.0001 38.4903L36.8726 43.1551C37.0098 43.2272 37.1596 43.2628 37.3088 43.2628C37.5032 43.2628 37.6967 43.2024 37.8599 43.0838C38.1486 42.874 38.2932 42.5185 38.2329 42.1668L36.5382 32.2867L43.7169 25.2895C43.9725 25.0405 44.0645 24.6679 43.9542 24.3286Z" fill="#FED42D"/>
<path d="M43.9542 24.3286C43.8439 23.9891 43.5506 23.7418 43.1974 23.6905L33.2773 22.2489L28.8408 13.2597C28.6829 12.9397 28.357 12.7372 28.0002 12.7372V38.4903L36.8727 43.1551C37.0099 43.2273 37.1596 43.2628 37.3089 43.2628C37.5033 43.2628 37.6968 43.2025 37.86 43.0839C38.1487 42.8741 38.2933 42.5186 38.233 42.1669L36.5382 32.2867L43.7169 25.2895C43.9725 25.0405 44.0645 24.6679 43.9542 24.3286Z" fill="#FCBF29"/>
</g>
<defs>
<clipPath id="clip0_32_181">
<rect width="32" height="32" fill="white" transform="translate(12 12)"/>
</clipPath>
</defs>
</svg>
